#N canvas 694 255 450 300 10;
#X obj 80 137 gemwin;
#X msg 79 61 create \, 1;
#X msg 203 110 destroy;
#X obj 81 20 bng 15 250 50 0 empty empty empty 17 7 0 10 -262144 -1
-1;
#X connect 1 0 0 0;
#X connect 2 0 0 0;
#X connect 3 0 1 0;
