#N canvas 756 23 616 768 10;
#X msg 10 7 create \, 1;
#X msg 78 8 destroy;
#X obj 10 47 gemwin;
#X text 47 33 opens the fucking window;
#X obj 254 41 gemhead;
#X obj 254 83 translateXYZ;
#X obj 253 116 t a b;
#X obj 255 158 rotateXYZ;
#X obj 243 201 colorRGB 1 0 0 1;
#X obj 356 303 alpha;
#X obj 333 347 cube;
#X connect 0 0 2 0;
#X connect 1 0 2 0;
#X connect 4 0 5 0;
#X connect 5 0 6 0;
#X connect 6 0 7 0;
#X connect 7 0 8 0;
#X connect 8 0 9 0;
#X connect 9 0 10 0;
